# xmcd
#
# Track frame offsets:
# 150
# 32334
# 77780
# 115060
# 157401
# 201250
# 234401
# 269768
# 327443
#
# Disc length: 4774 seconds
#
#
# Revision: 0
# Processed by: cddbd v1.5.2PL0 Copyright (c) Steve Scherf et al.
# Submitted via: FreeRIP 2.951 
#
DISCID=7c12a409
DTITLE=Rory Gallagher - Stratospere
DYEAR=1974
DGENRE=Rock
TTITLE0=Tattoo´d Lady
TTITLE1=Early in the Morning
TTITLE2=Cradle Rock
TTITLE3=Just a little Bit
TTITLE4=Walk on the Hot Coals
TTITLE5=A Million Miles Away
TTITLE6=Hands off
TTITLE7=Bullfrog Eyes
TTITLE8=Leaving Town Blues
EXTD=My Father´s Place, Roslyn, NY.3.9.1974
EXTT0=
EXTT1=
EXTT2=
EXTT3=
EXTT4=
EXTT5=
EXTT6=
EXTT7=
EXTT8=
PLAYORDER=
